<mxfile host="app.diagrams.net" modified="2024-01-19T17:48:14.450Z" agent="Mozilla/5.0 (X11; Linux x86_64; rv:121.0) Gecko/20100101 Firefox/121.0" etag="1vEwug3dB8nPBo-3trG8" version="22.1.21" type="github">
  <diagram name="Страница — 1" id="Bt4thBoPrSUwoxWzjaqT">
    <mxGraphModel dx="1434" dy="774" grid="1" gridSize="10" guides="1" tooltips="1" connect="1" arrows="1" fold="1" page="1" pageScale="1" pageWidth="827" pageHeight="1169" math="0" shadow="0">
      <root>
        <mxCell id="0" />
        <mxCell id="1" parent="0" />
        <mxCell id="uj_38s1KniOL5Ioj-gPl-1" value="Alterator" style="ellipse;whiteSpace=wrap;html=1;" parent="1" vertex="1">
          <mxGeometry x="90" y="80" width="100" height="100" as="geometry" />
        </mxCell>
        <mxCell id="uj_38s1KniOL5Ioj-gPl-2" value="Message loop" style="strokeWidth=2;html=1;shape=mxgraph.flowchart.start_1;whiteSpace=wrap;" parent="1" vertex="1">
          <mxGeometry x="90" y="230" width="100" height="60" as="geometry" />
        </mxCell>
        <mxCell id="uj_38s1KniOL5Ioj-gPl-3" value="" style="endArrow=classic;html=1;rounded=0;exitX=0.24;exitY=0.97;exitDx=0;exitDy=0;exitPerimeter=0;entryX=0.24;entryY=0.05;entryDx=0;entryDy=0;entryPerimeter=0;" parent="1" source="uj_38s1KniOL5Ioj-gPl-1" target="uj_38s1KniOL5Ioj-gPl-2" edge="1">
          <mxGeometry width="50" height="50" relative="1" as="geometry">
            <mxPoint x="390" y="410" as="sourcePoint" />
            <mxPoint x="440" y="360" as="targetPoint" />
          </mxGeometry>
        </mxCell>
        <mxCell id="uj_38s1KniOL5Ioj-gPl-4" value="" style="endArrow=classic;html=1;rounded=0;entryX=0.7;entryY=1;entryDx=0;entryDy=0;entryPerimeter=0;exitX=0.692;exitY=-0.042;exitDx=0;exitDy=0;exitPerimeter=0;" parent="1" source="uj_38s1KniOL5Ioj-gPl-2" target="uj_38s1KniOL5Ioj-gPl-1" edge="1">
          <mxGeometry width="50" height="50" relative="1" as="geometry">
            <mxPoint x="340" y="390" as="sourcePoint" />
            <mxPoint x="390" y="340" as="targetPoint" />
          </mxGeometry>
        </mxCell>
        <mxCell id="uj_38s1KniOL5Ioj-gPl-5" value="std:: in" style="text;strokeColor=none;align=center;fillColor=none;html=1;verticalAlign=middle;whiteSpace=wrap;rounded=0;" parent="1" vertex="1">
          <mxGeometry x="50" y="200" width="60" height="30" as="geometry" />
        </mxCell>
        <mxCell id="uj_38s1KniOL5Ioj-gPl-6" value="std::out" style="text;strokeColor=none;align=center;fillColor=none;html=1;verticalAlign=middle;whiteSpace=wrap;rounded=0;" parent="1" vertex="1">
          <mxGeometry x="170" y="200" width="60" height="30" as="geometry" />
        </mxCell>
        <mxCell id="uj_38s1KniOL5Ioj-gPl-8" value="" style="verticalLabelPosition=bottom;verticalAlign=top;html=1;shape=mxgraph.flowchart.on-page_reference;" parent="1" vertex="1">
          <mxGeometry x="510" y="75" width="60" height="60" as="geometry" />
        </mxCell>
        <mxCell id="uj_38s1KniOL5Ioj-gPl-9" value="UsbGuard" style="text;strokeColor=none;align=center;fillColor=none;html=1;verticalAlign=middle;whiteSpace=wrap;rounded=0;" parent="1" vertex="1">
          <mxGeometry x="505" y="80" width="70" height="50" as="geometry" />
        </mxCell>
        <mxCell id="uj_38s1KniOL5Ioj-gPl-11" value="Message Dispatcher" style="html=1;whiteSpace=wrap;" parent="1" vertex="1">
          <mxGeometry x="290" y="230" width="110" height="50" as="geometry" />
        </mxCell>
        <mxCell id="uj_38s1KniOL5Ioj-gPl-12" value="" style="endArrow=classic;html=1;rounded=0;exitX=0.955;exitY=0.306;exitDx=0;exitDy=0;exitPerimeter=0;entryX=-0.035;entryY=0.423;entryDx=0;entryDy=0;entryPerimeter=0;" parent="1" source="uj_38s1KniOL5Ioj-gPl-2" target="uj_38s1KniOL5Ioj-gPl-11" edge="1">
          <mxGeometry width="50" height="50" relative="1" as="geometry">
            <mxPoint x="300" y="350" as="sourcePoint" />
            <mxPoint x="350" y="300" as="targetPoint" />
          </mxGeometry>
        </mxCell>
        <mxCell id="uj_38s1KniOL5Ioj-gPl-13" value="" style="endArrow=classic;html=1;rounded=0;entryX=0.982;entryY=0.697;entryDx=0;entryDy=0;entryPerimeter=0;exitX=0;exitY=0.75;exitDx=0;exitDy=0;" parent="1" source="uj_38s1KniOL5Ioj-gPl-11" target="uj_38s1KniOL5Ioj-gPl-2" edge="1">
          <mxGeometry width="50" height="50" relative="1" as="geometry">
            <mxPoint x="300" y="350" as="sourcePoint" />
            <mxPoint x="350" y="300" as="targetPoint" />
          </mxGeometry>
        </mxCell>
        <mxCell id="uj_38s1KniOL5Ioj-gPl-14" value="Messages" style="text;strokeColor=none;align=center;fillColor=none;html=1;verticalAlign=middle;whiteSpace=wrap;rounded=0;" parent="1" vertex="1">
          <mxGeometry x="210" y="280" width="60" height="30" as="geometry" />
        </mxCell>
        <mxCell id="uj_38s1KniOL5Ioj-gPl-15" value="Methods" style="whiteSpace=wrap;html=1;aspect=fixed;" parent="1" vertex="1">
          <mxGeometry x="500" y="220" width="80" height="80" as="geometry" />
        </mxCell>
        <mxCell id="uj_38s1KniOL5Ioj-gPl-16" value="" style="endArrow=classic;html=1;rounded=0;entryX=0;entryY=0.375;entryDx=0;entryDy=0;entryPerimeter=0;exitX=1;exitY=0.5;exitDx=0;exitDy=0;" parent="1" source="uj_38s1KniOL5Ioj-gPl-11" target="uj_38s1KniOL5Ioj-gPl-15" edge="1">
          <mxGeometry width="50" height="50" relative="1" as="geometry">
            <mxPoint x="300" y="350" as="sourcePoint" />
            <mxPoint x="350" y="300" as="targetPoint" />
          </mxGeometry>
        </mxCell>
        <mxCell id="uj_38s1KniOL5Ioj-gPl-18" value="" style="endArrow=classic;html=1;rounded=0;entryX=0.5;entryY=1;entryDx=0;entryDy=0;entryPerimeter=0;exitX=0.491;exitY=-0.05;exitDx=0;exitDy=0;exitPerimeter=0;" parent="1" source="uj_38s1KniOL5Ioj-gPl-15" target="uj_38s1KniOL5Ioj-gPl-8" edge="1">
          <mxGeometry width="50" height="50" relative="1" as="geometry">
            <mxPoint x="300" y="350" as="sourcePoint" />
            <mxPoint x="350" y="300" as="targetPoint" />
          </mxGeometry>
        </mxCell>
        <mxCell id="uj_38s1KniOL5Ioj-gPl-19" value="Calls" style="text;strokeColor=none;align=center;fillColor=none;html=1;verticalAlign=middle;whiteSpace=wrap;rounded=0;" parent="1" vertex="1">
          <mxGeometry x="410" y="210" width="60" height="30" as="geometry" />
        </mxCell>
        <mxCell id="uj_38s1KniOL5Ioj-gPl-20" value="Lisp Gui" style="rounded=1;whiteSpace=wrap;html=1;" parent="1" vertex="1">
          <mxGeometry x="210" y="100" width="120" height="60" as="geometry" />
        </mxCell>
        <mxCell id="uj_38s1KniOL5Ioj-gPl-21" value="" style="endArrow=none;dashed=1;html=1;dashPattern=1 3;strokeWidth=2;rounded=0;exitX=1;exitY=0.5;exitDx=0;exitDy=0;entryX=0;entryY=0.5;entryDx=0;entryDy=0;" parent="1" source="uj_38s1KniOL5Ioj-gPl-1" target="uj_38s1KniOL5Ioj-gPl-20" edge="1">
          <mxGeometry width="50" height="50" relative="1" as="geometry">
            <mxPoint x="300" y="330" as="sourcePoint" />
            <mxPoint x="350" y="280" as="targetPoint" />
          </mxGeometry>
        </mxCell>
        <mxCell id="uj_38s1KniOL5Ioj-gPl-22" value="MessageReader" style="swimlane;fontStyle=1;align=center;verticalAlign=top;childLayout=stackLayout;horizontal=1;startSize=26;horizontalStack=0;resizeParent=1;resizeParentMax=0;resizeLast=0;collapsible=1;marginBottom=0;whiteSpace=wrap;html=1;" parent="1" vertex="1">
          <mxGeometry x="50" y="602" width="160" height="86" as="geometry" />
        </mxCell>
        <mxCell id="uj_38s1KniOL5Ioj-gPl-23" value="+ field: type" style="text;strokeColor=none;fillColor=none;align=left;verticalAlign=top;spacingLeft=4;spacingRight=4;overflow=hidden;rotatable=0;points=[[0,0.5],[1,0.5]];portConstraint=eastwest;whiteSpace=wrap;html=1;" parent="uj_38s1KniOL5Ioj-gPl-22" vertex="1">
          <mxGeometry y="26" width="160" height="26" as="geometry" />
        </mxCell>
        <mxCell id="uj_38s1KniOL5Ioj-gPl-24" value="" style="line;strokeWidth=1;fillColor=none;align=left;verticalAlign=middle;spacingTop=-1;spacingLeft=3;spacingRight=3;rotatable=0;labelPosition=right;points=[];portConstraint=eastwest;strokeColor=inherit;" parent="uj_38s1KniOL5Ioj-gPl-22" vertex="1">
          <mxGeometry y="52" width="160" height="8" as="geometry" />
        </mxCell>
        <mxCell id="uj_38s1KniOL5Ioj-gPl-25" value="+ Loop();" style="text;strokeColor=none;fillColor=none;align=left;verticalAlign=top;spacingLeft=4;spacingRight=4;overflow=hidden;rotatable=0;points=[[0,0.5],[1,0.5]];portConstraint=eastwest;whiteSpace=wrap;html=1;" parent="uj_38s1KniOL5Ioj-gPl-22" vertex="1">
          <mxGeometry y="60" width="160" height="26" as="geometry" />
        </mxCell>
        <mxCell id="uj_38s1KniOL5Ioj-gPl-26" value="Message" style="swimlane;fontStyle=1;align=center;verticalAlign=top;childLayout=stackLayout;horizontal=1;startSize=26;horizontalStack=0;resizeParent=1;resizeParentMax=0;resizeLast=0;collapsible=1;marginBottom=0;whiteSpace=wrap;html=1;" parent="1" vertex="1">
          <mxGeometry x="130" y="390" width="290" height="134" as="geometry" />
        </mxCell>
        <mxCell id="uj_38s1KniOL5Ioj-gPl-27" value="&lt;div&gt;+ action :string&lt;br&gt;&lt;/div&gt;&lt;div&gt;+ objects : string&lt;br&gt;&lt;/div&gt;&lt;div&gt;+ parameters: unordered_map&amp;lt;string,string&amp;gt;&lt;/div&gt;&lt;div&gt;&lt;br&gt;&lt;/div&gt;" style="text;strokeColor=none;fillColor=none;align=left;verticalAlign=top;spacingLeft=4;spacingRight=4;overflow=hidden;rotatable=0;points=[[0,0.5],[1,0.5]];portConstraint=eastwest;whiteSpace=wrap;html=1;" parent="uj_38s1KniOL5Ioj-gPl-26" vertex="1">
          <mxGeometry y="26" width="290" height="74" as="geometry" />
        </mxCell>
        <mxCell id="uj_38s1KniOL5Ioj-gPl-28" value="" style="line;strokeWidth=1;fillColor=none;align=left;verticalAlign=middle;spacingTop=-1;spacingLeft=3;spacingRight=3;rotatable=0;labelPosition=right;points=[];portConstraint=eastwest;strokeColor=inherit;" parent="uj_38s1KniOL5Ioj-gPl-26" vertex="1">
          <mxGeometry y="100" width="290" height="8" as="geometry" />
        </mxCell>
        <mxCell id="uj_38s1KniOL5Ioj-gPl-29" value="+ operator &amp;lt;&amp;lt; " style="text;strokeColor=none;fillColor=none;align=left;verticalAlign=top;spacingLeft=4;spacingRight=4;overflow=hidden;rotatable=0;points=[[0,0.5],[1,0.5]];portConstraint=eastwest;whiteSpace=wrap;html=1;" parent="uj_38s1KniOL5Ioj-gPl-26" vertex="1">
          <mxGeometry y="108" width="290" height="26" as="geometry" />
        </mxCell>
        <mxCell id="uj_38s1KniOL5Ioj-gPl-31" value="Dispatcher" style="swimlane;fontStyle=1;align=center;verticalAlign=top;childLayout=stackLayout;horizontal=1;startSize=26;horizontalStack=0;resizeParent=1;resizeParentMax=0;resizeLast=0;collapsible=1;marginBottom=0;whiteSpace=wrap;html=1;" parent="1" vertex="1">
          <mxGeometry x="320" y="590" width="190" height="110" as="geometry" />
        </mxCell>
        <mxCell id="uj_38s1KniOL5Ioj-gPl-32" value="+ field: type" style="text;strokeColor=none;fillColor=none;align=left;verticalAlign=top;spacingLeft=4;spacingRight=4;overflow=hidden;rotatable=0;points=[[0,0.5],[1,0.5]];portConstraint=eastwest;whiteSpace=wrap;html=1;" parent="uj_38s1KniOL5Ioj-gPl-31" vertex="1">
          <mxGeometry y="26" width="190" height="26" as="geometry" />
        </mxCell>
        <mxCell id="uj_38s1KniOL5Ioj-gPl-33" value="" style="line;strokeWidth=1;fillColor=none;align=left;verticalAlign=middle;spacingTop=-1;spacingLeft=3;spacingRight=3;rotatable=0;labelPosition=right;points=[];portConstraint=eastwest;strokeColor=inherit;" parent="uj_38s1KniOL5Ioj-gPl-31" vertex="1">
          <mxGeometry y="52" width="190" height="8" as="geometry" />
        </mxCell>
        <mxCell id="uj_38s1KniOL5Ioj-gPl-34" value="+ dispatch(Message): Message" style="text;strokeColor=none;fillColor=none;align=left;verticalAlign=top;spacingLeft=4;spacingRight=4;overflow=hidden;rotatable=0;points=[[0,0.5],[1,0.5]];portConstraint=eastwest;whiteSpace=wrap;html=1;" parent="uj_38s1KniOL5Ioj-gPl-31" vertex="1">
          <mxGeometry y="60" width="190" height="50" as="geometry" />
        </mxCell>
        <mxCell id="uj_38s1KniOL5Ioj-gPl-35" value="" style="endArrow=block;startArrow=block;endFill=1;startFill=1;html=1;rounded=0;exitX=0.989;exitY=0.81;exitDx=0;exitDy=0;exitPerimeter=0;" parent="1" source="uj_38s1KniOL5Ioj-gPl-23" edge="1">
          <mxGeometry width="160" relative="1" as="geometry">
            <mxPoint x="360" y="470" as="sourcePoint" />
            <mxPoint x="320" y="649" as="targetPoint" />
            <Array as="points" />
          </mxGeometry>
        </mxCell>
        <mxCell id="uj_38s1KniOL5Ioj-gPl-36" value="Use" style="endArrow=open;endSize=12;dashed=1;html=1;rounded=0;exitX=0.581;exitY=-0.008;exitDx=0;exitDy=0;exitPerimeter=0;entryX=0.473;entryY=1.036;entryDx=0;entryDy=0;entryPerimeter=0;" parent="1" source="uj_38s1KniOL5Ioj-gPl-31" target="uj_38s1KniOL5Ioj-gPl-29" edge="1">
          <mxGeometry width="160" relative="1" as="geometry">
            <mxPoint x="360" y="470" as="sourcePoint" />
            <mxPoint x="520" y="470" as="targetPoint" />
          </mxGeometry>
        </mxCell>
        <mxCell id="uj_38s1KniOL5Ioj-gPl-37" value="Use" style="endArrow=open;endSize=12;dashed=1;html=1;rounded=0;entryX=0.421;entryY=1.038;entryDx=0;entryDy=0;entryPerimeter=0;" parent="1" edge="1" target="uj_38s1KniOL5Ioj-gPl-29">
          <mxGeometry width="160" relative="1" as="geometry">
            <mxPoint x="130" y="600" as="sourcePoint" />
            <mxPoint x="320" y="490" as="targetPoint" />
          </mxGeometry>
        </mxCell>
      </root>
    </mxGraphModel>
  </diagram>
</mxfile>
